<svg width="180" height="25" viewBox="0 0 180 25" fill="none" xmlns="http://www.w3.org/2000/svg">
<path d="M16.707 10.4102C16.707 11.7305 16.543 12.9336 16.2148 14.0195C15.8867 15.0977 15.3867 16.0273 14.7148 16.8086C14.0508 17.5898 13.207 18.1914 12.1836 18.6133C11.1602 19.0273 9.94922 19.2344 8.55078 19.2344C7.15234 19.2344 5.94141 19.0273 4.91797 18.6133C3.89453 18.1914 3.04688 17.5898 2.375 16.8086C1.71094 16.0273 1.21484 15.0938 0.886719 14.0078C0.558594 12.9219 0.394531 11.7148 0.394531 10.3867C0.394531 8.61328 0.683594 7.07031 1.26172 5.75781C1.84766 4.4375 2.74609 3.41406 3.95703 2.6875C5.16797 1.96094 6.70703 1.59766 8.57422 1.59766C10.4336 1.59766 11.9609 1.96094 13.1562 2.6875C14.3594 3.41406 15.25 4.4375 15.8281 5.75781C16.4141 7.07812 16.707 8.62891 16.707 10.4102ZM4.20312 10.4102C4.20312 11.6055 4.35156 12.6367 4.64844 13.5039C4.95312 14.3633 5.42578 15.0273 6.06641 15.4961C6.70703 15.957 7.53516 16.1875 8.55078 16.1875C9.58203 16.1875 10.418 15.957 11.0586 15.4961C11.6992 15.0273 12.1641 14.3633 12.4531 13.5039C12.75 12.6367 12.8984 11.6055 12.8984 10.4102C12.8984 8.61328 12.5625 7.19922 11.8906 6.16797C11.2188 5.13672 10.1133 4.62109 8.57422 4.62109C7.55078 4.62109 6.71484 4.85547 6.06641 5.32422C5.42578 5.78516 4.95312 6.44922 4.64844 7.31641C4.35156 8.17578 4.20312 9.20703 4.20312 10.4102ZM26.3056 5.65234C27.7822 5.65234 28.9736 6.22656 29.8798 7.375C30.7939 8.52344 31.2509 10.207 31.2509 12.4258C31.2509 13.9102 31.0361 15.1602 30.6064 16.1758C30.1767 17.1836 29.583 17.9453 28.8252 18.4609C28.0673 18.9766 27.1963 19.2344 26.2119 19.2344C25.5791 19.2344 25.0361 19.1562 24.583 19C24.1298 18.8359 23.7431 18.6289 23.4228 18.3789C23.1025 18.1211 22.8252 17.8477 22.5908 17.5586H22.4033C22.4658 17.8711 22.5127 18.1914 22.5439 18.5195C22.5752 18.8477 22.5908 19.168 22.5908 19.4805V24.7656H19.0166V5.89844H21.9228L22.4267 7.59766H22.5908C22.8252 7.24609 23.1103 6.92188 23.4463 6.625C23.7822 6.32812 24.1845 6.09375 24.6533 5.92188C25.1298 5.74219 25.6806 5.65234 26.3056 5.65234ZM25.1572 8.51172C24.5322 8.51172 24.0361 8.64062 23.6689 8.89844C23.3017 9.15625 23.0322 9.54297 22.8603 10.0586C22.6963 10.5742 22.6064 11.2266 22.5908 12.0156V12.4023C22.5908 13.2461 22.6689 13.9609 22.8252 14.5469C22.9892 15.1328 23.2588 15.5781 23.6338 15.8828C24.0166 16.1875 24.54 16.3398 25.2041 16.3398C25.7509 16.3398 26.2002 16.1875 26.5517 15.8828C26.9033 15.5781 27.165 15.1328 27.3369 14.5469C27.5166 13.9531 27.6064 13.2305 27.6064 12.3789C27.6064 11.0977 27.4072 10.1328 27.0088 9.48438C26.6103 8.83594 25.9931 8.51172 25.1572 8.51172ZM38.6464 5.65234C39.8573 5.65234 40.9003 5.88672 41.7753 6.35547C42.6503 6.81641 43.3261 7.48828 43.8027 8.37109C44.2792 9.25391 44.5175 10.332 44.5175 11.6055V13.3398H36.0683C36.1073 14.3477 36.4081 15.1406 36.9706 15.7188C37.5409 16.2891 38.33 16.5742 39.3378 16.5742C40.1738 16.5742 40.9394 16.4883 41.6347 16.3164C42.33 16.1445 43.0448 15.8867 43.7792 15.543V18.3086C43.1308 18.6289 42.4511 18.8633 41.7402 19.0117C41.037 19.1602 40.1816 19.2344 39.1738 19.2344C37.8613 19.2344 36.6972 18.9922 35.6816 18.5078C34.6738 18.0234 33.8808 17.2852 33.3027 16.293C32.7323 15.3008 32.4472 14.0508 32.4472 12.543C32.4472 11.0117 32.705 9.73828 33.2206 8.72266C33.7441 7.69922 34.4706 6.93359 35.4003 6.42578C36.33 5.91016 37.412 5.65234 38.6464 5.65234ZM38.6698 8.19531C37.9745 8.19531 37.3964 8.41797 36.9355 8.86328C36.4823 9.30859 36.2206 10.0078 36.1503 10.9609H41.1659C41.1581 10.4297 41.0605 9.95703 40.873 9.54297C40.6933 9.12891 40.4198 8.80078 40.0527 8.55859C39.6933 8.31641 39.2323 8.19531 38.6698 8.19531ZM53.9052 5.65234C55.3036 5.65234 56.4286 6.03516 57.2802 6.80078C58.1317 7.55859 58.5575 8.77734 58.5575 10.457V19H54.9833V11.3477C54.9833 10.4102 54.8114 9.70312 54.4677 9.22656C54.1317 8.75 53.6005 8.51172 52.8739 8.51172C51.7802 8.51172 51.0341 8.88281 50.6356 9.625C50.2372 10.3672 50.038 11.4375 50.038 12.8359V19H46.4637V5.89844H49.1942L49.6747 7.57422H49.8739C50.1552 7.12109 50.5028 6.75391 50.9169 6.47266C51.3387 6.19141 51.8036 5.98438 52.3114 5.85156C52.827 5.71875 53.3583 5.65234 53.9052 5.65234ZM76.7 19H66.8328V1.86719H76.7V4.84375H70.4656V8.60547H76.2664V11.582H70.4656V16H76.7V19ZM86.4861 5.65234C87.8845 5.65234 89.0095 6.03516 89.8611 6.80078C90.7127 7.55859 91.1384 8.77734 91.1384 10.457V19H87.5642V11.3477C87.5642 10.4102 87.3923 9.70312 87.0486 9.22656C86.7127 8.75 86.1814 8.51172 85.4548 8.51172C84.3611 8.51172 83.615 8.88281 83.2166 9.625C82.8181 10.3672 82.6189 11.4375 82.6189 12.8359V19H79.0447V5.89844H81.7752L82.2556 7.57422H82.4548C82.7361 7.12109 83.0837 6.75391 83.4978 6.47266C83.9197 6.19141 84.3845 5.98438 84.8923 5.85156C85.408 5.71875 85.9392 5.65234 86.4861 5.65234ZM99.3777 16.3867C99.7683 16.3867 100.147 16.3477 100.514 16.2695C100.889 16.1914 101.26 16.0938 101.628 15.9766V18.6367C101.245 18.8086 100.768 18.9492 100.198 19.0586C99.6355 19.1758 99.0183 19.2344 98.3464 19.2344C97.5652 19.2344 96.862 19.1094 96.237 18.8594C95.6198 18.6016 95.1316 18.1602 94.7722 17.5352C94.4206 16.9023 94.2448 16.0234 94.2448 14.8984V8.58203H92.5339V7.07031L94.5027 5.875L95.5339 3.10938H97.8191V5.89844H101.487V8.58203H97.8191V14.8984C97.8191 15.3984 97.9597 15.7734 98.2409 16.0234C98.53 16.2656 98.9089 16.3867 99.3777 16.3867ZM108.73 5.65234C109.941 5.65234 110.984 5.88672 111.859 6.35547C112.734 6.81641 113.41 7.48828 113.886 8.37109C114.363 9.25391 114.601 10.332 114.601 11.6055V13.3398H106.152C106.191 14.3477 106.492 15.1406 107.054 15.7188C107.625 16.2891 108.414 16.5742 109.422 16.5742C110.257 16.5742 111.023 16.4883 111.718 16.3164C112.414 16.1445 113.129 15.8867 113.863 15.543V18.3086C113.215 18.6289 112.535 18.8633 111.824 19.0117C111.121 19.1602 110.265 19.2344 109.257 19.2344C107.945 19.2344 106.781 18.9922 105.765 18.5078C104.757 18.0234 103.965 17.2852 103.386 16.293C102.816 15.3008 102.531 14.0508 102.531 12.543C102.531 11.0117 102.789 9.73828 103.304 8.72266C103.828 7.69922 104.554 6.93359 105.484 6.42578C106.414 5.91016 107.496 5.65234 108.73 5.65234ZM108.754 8.19531C108.058 8.19531 107.48 8.41797 107.019 8.86328C106.566 9.30859 106.304 10.0078 106.234 10.9609H111.25C111.242 10.4297 111.144 9.95703 110.957 9.54297C110.777 9.12891 110.504 8.80078 110.136 8.55859C109.777 8.31641 109.316 8.19531 108.754 8.19531ZM123.86 5.65234C124.04 5.65234 124.247 5.66406 124.481 5.6875C124.723 5.70312 124.919 5.72656 125.067 5.75781L124.798 9.10938C124.68 9.07031 124.512 9.04297 124.294 9.02734C124.083 9.00391 123.899 8.99219 123.743 8.99219C123.282 8.99219 122.833 9.05078 122.395 9.16797C121.965 9.28516 121.579 9.47656 121.235 9.74219C120.891 10 120.618 10.3438 120.415 10.7734C120.219 11.1953 120.122 11.7148 120.122 12.332V19H116.548V5.89844H119.255L119.782 8.10156H119.958C120.215 7.65625 120.536 7.25 120.919 6.88281C121.309 6.50781 121.751 6.21094 122.243 5.99219C122.743 5.76562 123.282 5.65234 123.86 5.65234ZM133.775 5.65234C135.252 5.65234 136.443 6.22656 137.349 7.375C138.263 8.52344 138.72 10.207 138.72 12.4258C138.72 13.9102 138.505 15.1602 138.076 16.1758C137.646 17.1836 137.052 17.9453 136.295 18.4609C135.537 18.9766 134.666 19.2344 133.681 19.2344C133.048 19.2344 132.505 19.1562 132.052 19C131.599 18.8359 131.213 18.6289 130.892 18.3789C130.572 18.1211 130.295 17.8477 130.06 17.5586H129.873C129.935 17.8711 129.982 18.1914 130.013 18.5195C130.045 18.8477 130.06 19.168 130.06 19.4805V24.7656H126.486V5.89844H129.392L129.896 7.59766H130.06C130.295 7.24609 130.58 6.92188 130.916 6.625C131.252 6.32812 131.654 6.09375 132.123 5.92188C132.599 5.74219 133.15 5.65234 133.775 5.65234ZM132.627 8.51172C132.002 8.51172 131.505 8.64062 131.138 8.89844C130.771 9.15625 130.502 9.54297 130.33 10.0586C130.166 10.5742 130.076 11.2266 130.06 12.0156V12.4023C130.06 13.2461 130.138 13.9609 130.295 14.5469C130.459 15.1328 130.728 15.5781 131.103 15.8828C131.486 16.1875 132.009 16.3398 132.673 16.3398C133.22 16.3398 133.67 16.1875 134.021 15.8828C134.373 15.5781 134.634 15.1328 134.806 14.5469C134.986 13.9531 135.076 13.2305 135.076 12.3789C135.076 11.0977 134.877 10.1328 134.478 9.48438C134.08 8.83594 133.463 8.51172 132.627 8.51172ZM148.026 5.65234C148.206 5.65234 148.413 5.66406 148.647 5.6875C148.889 5.70312 149.085 5.72656 149.233 5.75781L148.963 9.10938C148.846 9.07031 148.678 9.04297 148.46 9.02734C148.249 9.00391 148.065 8.99219 147.909 8.99219C147.448 8.99219 146.999 9.05078 146.561 9.16797C146.131 9.28516 145.745 9.47656 145.401 9.74219C145.057 10 144.784 10.3438 144.581 10.7734C144.385 11.1953 144.288 11.7148 144.288 12.332V19H140.713V5.89844H143.42L143.948 8.10156H144.124C144.381 7.65625 144.702 7.25 145.085 6.88281C145.475 6.50781 145.917 6.21094 146.409 5.99219C146.909 5.76562 147.448 5.65234 148.026 5.65234ZM154.226 5.89844V19H150.652V5.89844H154.226ZM152.445 0.765625C152.976 0.765625 153.433 0.890625 153.816 1.14062C154.199 1.38281 154.39 1.83984 154.39 2.51172C154.39 3.17578 154.199 3.63672 153.816 3.89453C153.433 4.14453 152.976 4.26953 152.445 4.26953C151.906 4.26953 151.445 4.14453 151.062 3.89453C150.687 3.63672 150.5 3.17578 150.5 2.51172C150.5 1.83984 150.687 1.38281 151.062 1.14062C151.445 0.890625 151.906 0.765625 152.445 0.765625ZM166.168 15.1094C166.168 16 165.958 16.7539 165.536 17.3711C165.122 17.9805 164.5 18.4453 163.672 18.7656C162.844 19.0781 161.813 19.2344 160.579 19.2344C159.665 19.2344 158.879 19.1758 158.223 19.0586C157.575 18.9414 156.918 18.7461 156.254 18.4727V15.5195C156.965 15.8398 157.727 16.1055 158.54 16.3164C159.36 16.5195 160.079 16.6211 160.696 16.6211C161.391 16.6211 161.887 16.5195 162.184 16.3164C162.489 16.1055 162.641 15.832 162.641 15.4961C162.641 15.2773 162.579 15.082 162.454 14.9102C162.336 14.7305 162.079 14.5312 161.68 14.3125C161.282 14.0859 160.657 13.793 159.805 13.4336C158.985 13.0898 158.309 12.7422 157.778 12.3906C157.254 12.0391 156.864 11.625 156.606 11.1484C156.356 10.6641 156.231 10.0508 156.231 9.30859C156.231 8.09766 156.7 7.1875 157.637 6.57812C158.583 5.96094 159.844 5.65234 161.422 5.65234C162.235 5.65234 163.008 5.73438 163.743 5.89844C164.485 6.0625 165.247 6.32422 166.028 6.68359L164.95 9.26172C164.301 8.98047 163.688 8.75 163.11 8.57031C162.54 8.39062 161.958 8.30078 161.364 8.30078C160.84 8.30078 160.446 8.37109 160.18 8.51172C159.915 8.65234 159.782 8.86719 159.782 9.15625C159.782 9.36719 159.848 9.55469 159.981 9.71875C160.122 9.88281 160.387 10.0664 160.778 10.2695C161.176 10.4648 161.758 10.7188 162.524 11.0312C163.266 11.3359 163.911 11.6562 164.458 11.9922C165.004 12.3203 165.426 12.7305 165.723 13.2227C166.02 13.707 166.168 14.3359 166.168 15.1094ZM173.4 5.65234C174.611 5.65234 175.654 5.88672 176.529 6.35547C177.404 6.81641 178.08 7.48828 178.556 8.37109C179.033 9.25391 179.271 10.332 179.271 11.6055V13.3398H170.822C170.861 14.3477 171.162 15.1406 171.724 15.7188C172.294 16.2891 173.083 16.5742 174.091 16.5742C174.927 16.5742 175.693 16.4883 176.388 16.3164C177.083 16.1445 177.798 15.8867 178.533 15.543V18.3086C177.884 18.6289 177.205 18.8633 176.494 19.0117C175.79 19.1602 174.935 19.2344 173.927 19.2344C172.615 19.2344 171.451 18.9922 170.435 18.5078C169.427 18.0234 168.634 17.2852 168.056 16.293C167.486 15.3008 167.201 14.0508 167.201 12.543C167.201 11.0117 167.458 9.73828 167.974 8.72266C168.497 7.69922 169.224 6.93359 170.154 6.42578C171.083 5.91016 172.165 5.65234 173.4 5.65234ZM173.423 8.19531C172.728 8.19531 172.15 8.41797 171.689 8.86328C171.236 9.30859 170.974 10.0078 170.904 10.9609H175.919C175.912 10.4297 175.814 9.95703 175.626 9.54297C175.447 9.12891 175.173 8.80078 174.806 8.55859C174.447 8.31641 173.986 8.19531 173.423 8.19531Z" fill="#303031"/>
</svg>
